<svg width="40" height="40" viewBox="0 0 40 40" fill="currentColor" xmlns="http://www.w3.org/2000/svg">
<path d="M13.9583 27.0833L22.3749 24.6667C22.9305 24.5 23.4099 24.215 23.8133 23.8117C24.2166 23.4083 24.501 22.9294 24.6666 22.375L27.0833 13.9583C27.1666 13.6528 27.0905 13.3817 26.8549 13.145C26.6194 12.9083 26.3483 12.8322 26.0416 12.9167L17.6249 15.3333C17.0694 15.5 16.5905 15.785 16.1883 16.1883C15.786 16.5917 15.501 17.0706 15.3333 17.625L12.9166 26.0417C12.8333 26.3472 12.9099 26.6183 13.1466 26.855C13.3833 27.0917 13.6538 27.1678 13.9583 27.0833ZM19.9999 22.5C19.3055 22.5 18.7155 22.2572 18.2299 21.7717C17.7444 21.2861 17.501 20.6956 17.4999 20C17.4988 19.3044 17.7421 18.7144 18.2299 18.23C18.7177 17.7456 19.3077 17.5022 19.9999 17.5C20.6921 17.4978 21.2827 17.7411 21.7716 18.23C22.2605 18.7189 22.5033 19.3089 22.4999 20C22.4966 20.6911 22.2538 21.2817 21.7716 21.7717C21.2894 22.2617 20.6988 22.5044 19.9999 22.5ZM19.9999 36.6667C17.6944 36.6667 15.5277 36.2289 13.4999 35.3533C11.4721 34.4778 9.70825 33.2906 8.20825 31.7917C6.70825 30.2928 5.52103 28.5289 4.64659 26.5C3.77214 24.4711 3.33437 22.3044 3.33325 20C3.33214 17.6956 3.76992 15.5289 4.64659 13.5C5.52325 11.4711 6.71048 9.70722 8.20825 8.20833C9.70603 6.70944 11.4699 5.52222 13.4999 4.64666C15.5299 3.77111 17.6966 3.33333 19.9999 3.33333C22.3033 3.33333 24.4699 3.77111 26.4999 4.64666C28.5299 5.52222 30.2938 6.70944 31.7916 8.20833C33.2894 9.70722 34.4771 11.4711 35.3549 13.5C36.2327 15.5289 36.6699 17.6956 36.6666 20C36.6633 22.3044 36.2255 24.4711 35.3533 26.5C34.481 28.5289 33.2938 30.2928 31.7916 31.7917C30.2894 33.2906 28.5255 34.4783 26.4999 35.355C24.4744 36.2317 22.3077 36.6689 19.9999 36.6667Z" fill="currentColor"/>
</svg>
