<svg width="40" height="40" viewBox="0 0 40 40" fill="currentColor" xmlns="http://www.w3.org/2000/svg">
<path d="M6.66675 31.6667V16.6667C6.66675 16.1389 6.78508 15.6389 7.02175 15.1667C7.25841 14.6944 7.58453 14.3056 8.00008 14L18.0001 6.5C18.5834 6.05556 19.2501 5.83334 20.0001 5.83334C20.7501 5.83334 21.4167 6.05556 22.0001 6.5L32.0001 14C32.4167 14.3056 32.7434 14.6944 32.9801 15.1667C33.2167 15.6389 33.3345 16.1389 33.3334 16.6667V31.6667C33.3334 32.5833 33.0067 33.3683 32.3534 34.0217C31.7001 34.675 30.9156 35.0011 30.0001 35H25.0001C24.5279 35 24.1323 34.84 23.8134 34.52C23.4945 34.2 23.3345 33.8044 23.3334 33.3333V25C23.3334 24.5278 23.1734 24.1322 22.8534 23.8133C22.5334 23.4944 22.1379 23.3344 21.6667 23.3333H18.3334C17.8612 23.3333 17.4656 23.4933 17.1467 23.8133C16.8279 24.1333 16.6679 24.5289 16.6667 25V33.3333C16.6667 33.8056 16.5067 34.2017 16.1867 34.5217C15.8667 34.8417 15.4712 35.0011 15.0001 35H10.0001C9.08341 35 8.29897 34.6739 7.64675 34.0217C6.99453 33.3694 6.66786 32.5844 6.66675 31.6667Z" fill="currentColor"/>
</svg>
