<svg width="40" height="40" viewBox="0 0 40 40" fill="currentColor" xmlns="http://www.w3.org/2000/svg">
<path fill-rule="evenodd" clip-rule="evenodd" d="M3.75 10C3.75 9.66848 3.8817 9.35054 4.11612 9.11612C4.35054 8.8817 4.66848 8.75 5 8.75H35C35.3315 8.75 35.6495 8.8817 35.8839 9.11612C36.1183 9.35054 36.25 9.66848 36.25 10C36.25 10.3315 36.1183 10.6495 35.8839 10.8839C35.6495 11.1183 35.3315 11.25 35 11.25H5C4.66848 11.25 4.35054 11.1183 4.11612 10.8839C3.8817 10.6495 3.75 10.3315 3.75 10ZM3.75 16.6667C3.75 16.3351 3.8817 16.0172 4.11612 15.7828C4.35054 15.5484 4.66848 15.4167 5 15.4167H35C35.3315 15.4167 35.6495 15.5484 35.8839 15.7828C36.1183 16.0172 36.25 16.3351 36.25 16.6667C36.25 16.9982 36.1183 17.3161 35.8839 17.5505C35.6495 17.785 35.3315 17.9167 35 17.9167H5C4.66848 17.9167 4.35054 17.785 4.11612 17.5505C3.8817 17.3161 3.75 16.9982 3.75 16.6667ZM3.75 23.3333C3.75 23.0018 3.8817 22.6839 4.11612 22.4495C4.35054 22.215 4.66848 22.0833 5 22.0833H18.3333C18.6649 22.0833 18.9828 22.215 19.2172 22.4495C19.4516 22.6839 19.5833 23.0018 19.5833 23.3333C19.5833 23.6649 19.4516 23.9828 19.2172 24.2172C18.9828 24.4516 18.6649 24.5833 18.3333 24.5833H5C4.66848 24.5833 4.35054 24.4516 4.11612 24.2172C3.8817 23.9828 3.75 23.6649 3.75 23.3333ZM3.75 30C3.75 29.6685 3.8817 29.3505 4.11612 29.1161C4.35054 28.8817 4.66848 28.75 5 28.75H18.3333C18.6649 28.75 18.9828 28.8817 19.2172 29.1161C19.4516 29.3505 19.5833 29.6685 19.5833 30C19.5833 30.3315 19.4516 30.6495 19.2172 30.8839C18.9828 31.1183 18.6649 31.25 18.3333 31.25H5C4.66848 31.25 4.35054 31.1183 4.11612 30.8839C3.8817 30.6495 3.75 30.3315 3.75 30Z" fill="currentColor"/>
<path d="M31.4583 23.53C34.2149 25.1217 35.5916 25.9183 35.7949 27.065C35.8456 27.3522 35.8456 27.6461 35.7949 27.9333C35.5933 29.0833 34.2149 29.8783 31.4583 31.47C28.7016 33.0617 27.3249 33.8567 26.2283 33.4583C25.9544 33.3588 25.7 33.2122 25.4766 33.025C24.5833 32.275 24.5833 30.6833 24.5833 27.5C24.5833 24.3167 24.5833 22.7267 25.4766 21.9767C25.6999 21.7883 25.9549 21.6433 26.2283 21.5433C27.3233 21.1433 28.7016 21.94 31.4583 23.53Z" fill="currentColor"/>
</svg>
