<svg width="40" height="40" viewBox="0 0 40 40" fill="currentColor" xmlns="http://www.w3.org/2000/svg">
<path d="M14.9999 30H24.1666C24.6388 30 25.0766 29.8817 25.4799 29.645C25.8833 29.4083 26.1677 29.0822 26.3333 28.6667L29.8333 20.5C29.8888 20.3611 29.9305 20.2222 29.9583 20.0833C29.986 19.9445 29.9999 19.8056 29.9999 19.6667V18.3333C29.9999 17.8611 29.8399 17.465 29.5199 17.145C29.1999 16.825 28.8044 16.6656 28.3333 16.6667H20.6666L21.6666 11C21.7221 10.7222 21.7083 10.4583 21.6249 10.2083C21.5416 9.95834 21.4027 9.73612 21.2083 9.54168L19.9999 8.33334L12.3333 16.6667C12.111 16.8889 11.9444 17.1389 11.8333 17.4167C11.7221 17.6945 11.6666 18 11.6666 18.3333V26.6667C11.6666 27.5833 11.9933 28.3683 12.6466 29.0217C13.2999 29.675 14.0844 30.0011 14.9999 30ZM19.9999 36.6667C17.6944 36.6667 15.5277 36.2289 13.4999 35.3533C11.4721 34.4778 9.70825 33.2906 8.20825 31.7917C6.70825 30.2928 5.52103 28.5289 4.64659 26.5C3.77214 24.4711 3.33437 22.3045 3.33325 20C3.33214 17.6956 3.76992 15.5289 4.64659 13.5C5.52325 11.4711 6.71048 9.70723 8.20825 8.20834C9.70603 6.70946 11.4699 5.52223 13.4999 4.64668C15.5299 3.77112 17.6966 3.33334 19.9999 3.33334C22.3033 3.33334 24.4699 3.77112 26.4999 4.64668C28.5299 5.52223 30.2938 6.70946 31.7916 8.20834C33.2894 9.70723 34.4771 11.4711 35.3549 13.5C36.2327 15.5289 36.6699 17.6956 36.6666 20C36.6633 22.3045 36.2255 24.4711 35.3533 26.5C34.481 28.5289 33.2938 30.2928 31.7916 31.7917C30.2894 33.2906 28.5255 34.4783 26.4999 35.355C24.4744 36.2317 22.3077 36.6689 19.9999 36.6667Z" fill="currentColor"/>
</svg>
