<svg width="150" height="150" viewBox="0 0 150 150" fill="none" xmlns="http://www.w3.org/2000/svg">
<path d="M14.7938 110.47H18.1875C19.192 110.47 19.7572 109.843 19.7572 108.9V73.4946C19.7572 43.7357 42.2304 24.3991 75.0027 24.3991C107.837 24.3991 130.248 43.7384 130.248 73.4946V108.9C130.248 109.843 130.813 110.47 131.818 110.47H135.209C137.968 110.47 139.915 108.712 139.915 106.138V71.1696C139.915 37.8348 113.612 14.6705 77.1375 14.6705H72.8679C36.3938 14.6705 10.0902 37.8348 10.0902 71.1696V106.138C10.0902 108.71 12.0991 110.47 14.7965 110.47M32.8768 135.329H38.7804C46.5 135.329 50.834 131.25 50.834 124.031V96.9107C50.834 89.6893 46.5 85.6071 38.7804 85.6071H32.8768C28.6715 85.6071 26.3491 87.8705 26.3491 92.0143V128.925C26.3491 133.133 28.6715 135.329 32.8768 135.329ZM111.289 135.329H117.19C121.46 135.329 123.844 133.133 123.844 128.928V92.0143C123.844 87.8705 121.46 85.6098 117.19 85.6098H111.289C103.629 85.6098 99.2974 89.6893 99.2974 96.9107V124.031C99.2974 131.25 103.629 135.329 111.289 135.329Z" fill="black"/>
</svg>
