<svg width="28" height="28" viewBox="0 0 50 50" fill="currentColor" xmlns="http://www.w3.org/2000/svg">
<path d="M23.3334 17.4479L30.6251 4.94792C33.7848 5.78125 36.589 7.30903 39.0376 9.53125C41.4862 11.7535 43.2654 14.3924 44.3751 17.4479H23.3334ZM17.5522 22.6563L10.4168 10.1563C12.2918 8.31597 14.4709 6.85764 16.9543 5.78125C19.4376 4.70486 22.1195 4.16667 25.0001 4.16667C25.4515 4.16667 25.9723 4.19306 26.5626 4.24583C27.1529 4.29861 27.6911 4.35903 28.1772 4.42708L17.5522 22.6563ZM4.84385 30.2083C4.63552 29.375 4.47024 28.5243 4.34802 27.6563C4.2258 26.7882 4.16538 25.9028 4.16677 25C4.16677 22.5347 4.56608 20.2083 5.36469 18.0208C6.1633 15.8333 7.29177 13.8368 8.7501 12.0313L19.2709 30.2083H4.84385ZM19.4272 45.0521C16.2675 44.2188 13.455 42.691 10.9897 40.4688C8.52441 38.2465 6.73622 35.6076 5.6251 32.5521H26.6147L19.4272 45.0521ZM25.0001 45.8333C24.4793 45.8333 23.9494 45.7986 23.4105 45.7292C22.8716 45.6597 22.3598 45.5903 21.8751 45.5208L32.448 27.3438L39.5834 39.8438C37.7084 41.684 35.53 43.1424 33.048 44.2188C30.5661 45.2951 27.8834 45.8333 25.0001 45.8333ZM41.2501 37.9688L30.7293 19.7917H45.1564C45.3647 20.625 45.53 21.4757 45.6522 22.3438C45.7744 23.2118 45.8348 24.0972 45.8334 25C45.8334 27.4306 45.4084 29.7569 44.5584 31.9792C43.7084 34.2014 42.6057 36.1979 41.2501 37.9688Z" fill="currentColor"/>
</svg>
