<svg width="28" height="28" viewBox="0 0 34 33" fill="currentColor" xmlns="http://www.w3.org/2000/svg">
<path d="M4.16667 32.448C3.02083 32.448 2.04028 32.0403 1.225 31.225C0.409722 30.4098 0.00138889 29.4285 0 28.2813V24.1146C0 23.5243 0.2 23.0299 0.6 22.6313C1 22.2327 1.49444 22.0327 2.08333 22.0313C2.67222 22.0299 3.16736 22.2299 3.56875 22.6313C3.97014 23.0327 4.16944 23.5271 4.16667 24.1146V28.2813H29.1667V24.1146C29.1667 23.5243 29.3667 23.0299 29.7667 22.6313C30.1667 22.2327 30.6611 22.0327 31.25 22.0313C31.8389 22.0299 32.334 22.2299 32.7354 22.6313C33.1368 23.0327 33.3361 23.5271 33.3333 24.1146V28.2813C33.3333 29.4271 32.9257 30.4084 32.1104 31.225C31.2951 32.0417 30.3139 32.4493 29.1667 32.448H4.16667ZM14.5833 7.13545L10.6771 11.0417C10.2604 11.4584 9.76597 11.6584 9.19375 11.6417C8.62153 11.625 8.12639 11.4077 7.70833 10.9896C7.32639 10.5729 7.12639 10.0868 7.10833 9.53128C7.09028 8.97573 7.29028 8.48962 7.70833 8.07295L15.2083 0.572948C15.4167 0.364615 15.6424 0.217393 15.8854 0.131281C16.1285 0.0451704 16.3889 0.00142094 16.6667 3.20517e-05C16.9444 -0.00135684 17.2049 0.0423926 17.4479 0.131281C17.691 0.22017 17.9167 0.367392 18.125 0.572948L25.625 8.07295C26.0417 8.48962 26.2417 8.97573 26.225 9.53128C26.2083 10.0868 26.0083 10.5729 25.625 10.9896C25.2083 11.4063 24.7139 11.6236 24.1417 11.6417C23.5694 11.6598 23.0743 11.4598 22.6562 11.0417L18.75 7.13545V22.0313C18.75 22.6216 18.55 23.1167 18.15 23.5167C17.75 23.9167 17.2556 24.116 16.6667 24.1146C16.0778 24.1132 15.5833 23.9132 15.1833 23.5146C14.7833 23.116 14.5833 22.6216 14.5833 22.0313V7.13545Z" fill="currentColor"/>
</svg>
